<svg id="Layer_1" data-name="Layer 1" xmlns="http://www.w3.org/2000/svg" viewBox="0 0 277.49 303.74"><defs><style>.cls-1{fill:#e74128;}.cls-2{fill:#fcfbfb;}.cls-3{fill:#fcfcfd;}</style></defs><path class="cls-1" d="M391.25,371.87l45.49,54.33-63.38-56.26-26.63-48.61c-2.31-4.22-1.68-4.65,1.41-1l21.93,26.18L386,348a5.86,5.86,0,0,1,5.21,5.72Z" transform="translate(-159.25 -316.63)"/><path class="cls-1" d="M342.59,324l25,45.81-127.89,9,18.5-51.21A14,14,0,0,1,269.92,319l59.76-2.33A15.4,15.4,0,0,1,342.59,324Zm1.85,31-4.62-9.16a14.54,14.54,0,0,0-12.64-7.34L276.86,341a13.76,13.76,0,0,0-11.47,8.72l-3.35,10Z" transform="translate(-159.25 -316.63)"/><path class="cls-1" d="M232.8,353.37,209.25,383V360.78a5.86,5.86,0,0,1,5.21-5.71Z" transform="translate(-159.25 -316.63)"/><polygon class="cls-1" points="50 142.42 76.76 68.57 214.52 58.43 277.36 116.26 270.97 265.69 50 300.58 50 142.42"/><path class="cls-1" d="M203.93,458.49l2.32,161.88-47-65V413.82l47-45.59v24.09L241,348.53,225,350l24.29-23.55c3.45-3.34,4.88-2.41,3.2,2.1Z" transform="translate(-159.25 -316.63)"/><path class="cls-2" d="M385.31,419.94c-8.68-4.8-21.33-5-33.7-.57a58.39,58.39,0,0,0-23.08,15.19c-4.28,4.57-5.67,7-6.41,11.15-1.05,5.91.56,11.66,6,21.71,2.56,4.69,3.39,6.57,3.4,7.75,0,.83-.09,1-3.12,4.47a297,297,0,0,1-27.58,27c-4.15,3.56-8.2,6.88-16.87,13.76-12.19,9.67-14.16,11.31-18.67,15.74a43.27,43.27,0,0,0-7.61,9.84,33,33,0,0,0-2.62,6.89c-.77,4.57,1.68,9.4,6.78,13.32a20.32,20.32,0,0,0,9.51,4.3c3.42.56,5.83-.07,9.47-2.46,3.47-2.3,4.37-3.12,8.71-8.13,4.9-5.64,5.62-6.67,15-21.86,10.84-17.47,14.81-23.4,22.57-33.8,3.62-4.84,14.06-17.72,15.33-18.88,1.54-1.44,3.59-1.28,10.14.75,6.76,2.1,10.73,3.06,14,3.34,6.41.58,11.19-.54,15.83-3.64,3.1-2.06,9-9.52,11.87-14.87,8.16-15.45,7.85-32.27-.79-43.71A25.59,25.59,0,0,0,385.31,419.94Z" transform="translate(-159.25 -316.63)"/><path class="cls-3" d="M232.81,436.2c.09,2.88,5.69,12.47,13.8,23.64a155.93,155.93,0,0,0,12.46,15.43c4.65,5.22,5.68,6.25,7,7.16a13.62,13.62,0,0,0,6.17,2.31c2.39.31,3.71.3,9.34-.14,5.08-.4,7.24-.42,9.12-.05,3.22.59,5.1,2,7.48,5.46.76,1.12,4.19,6.52,7.62,12,12.65,20.18,16.33,25.76,22.91,34.9a152.1,152.1,0,0,0,14.11,17.56c7.32,8.16,9.08,9.79,13.86,13,4.28,2.87,6.79,3.57,10.42,2.93a19.74,19.74,0,0,0,3.39-.91c7.84-3.17,13.63-11.13,12.36-17a36.9,36.9,0,0,0-3.24-7.15,70.43,70.43,0,0,0-9.34-11c-3.55-3.26-5.94-5.23-15.35-12.61-19.26-15.06-27.09-22-39.69-34.85-6.33-6.49-9.3-10-9.65-11.36-.55-2.14-.29-4.07,1.23-9,1.61-5.26,2.09-9.21,1.49-12.78s-2.71-6.53-10-14.32A144.56,144.56,0,0,0,286,427.39c-10.2-9.09-21.12-17.26-22-16.37-.61.65,1.48,3.69,9.55,13.85,9.76,12.28,13.1,17,14.42,20.33.71,1.76.7,2.47,0,2.93-1.73,1.14-6.28-2.44-16.82-13.2-13.4-13.7-16-16.12-17.3-15.87s.7,3.37,9.32,14.05c10.06,12.49,13.31,17.08,14.5,20.58.93,2.65-.55,3.83-3.16,2.54-3.06-1.52-6.79-5-17.35-16.29-10.07-10.72-12.7-13.21-13.71-12.85-1.21.44,1.05,4,9.39,14.9,7.42,9.67,9.77,12.93,11.76,16.16,2.4,3.84,3.07,6,2.18,6.66-1.06.84-3.09-.14-6.93-3.31-2.69-2.24-6.83-6.4-14.95-15-9-9.55-11.32-11.72-12-11.22A1.61,1.61,0,0,0,232.81,436.2Z" transform="translate(-159.25 -316.63)"/></svg>